<svg width="154pt" height="500pt" viewBox="0.00 0.00 154.00 500.00" xmlns="http://www.w3.org/2000/svg" xmlns:xlink="http://www.w3.org/1999/xlink">
<g id="graph0" class="graph" transform="scale(1 1) rotate(0) translate(4 496)">
<title>%0</title>
<!-- node_1 -->
<g id="node_1" class="node">
<title>node_1</title>
<path fill="#bfefff" stroke="#000000" stroke-width=".5" d="M89.9699,-462.5C89.9699,-462.5 125.0301,-462.5 125.0301,-462.5 129.8635,-462.5 134.6968,-467.3333 134.6968,-472.1667 134.6968,-472.1667 134.6968,-481.8333 134.6968,-481.8333 134.6968,-486.6667 129.8635,-491.5 125.0301,-491.5 125.0301,-491.5 89.9699,-491.5 89.9699,-491.5 85.1365,-491.5 80.3032,-486.6667 80.3032,-481.8333 80.3032,-481.8333 80.3032,-472.1667 80.3032,-472.1667 80.3032,-467.3333 85.1365,-462.5 89.9699,-462.5"></path>
<text text-anchor="middle" x="107.5" y="-472.2" font-family="Courier,monospace" font-size="16.00" fill="#000000">root</text>
</g>
<!-- node_4 -->
<g id="node_4" class="node">
<title>node_4</title>
<path fill="#bfefff" stroke="#000000" stroke-width=".5" d="M102.6667,-396.5C102.6667,-396.5 112.3333,-396.5 112.3333,-396.5 117.1667,-396.5 122,-401.3333 122,-406.1667 122,-406.1667 122,-415.8333 122,-415.8333 122,-420.6667 117.1667,-425.5 112.3333,-425.5 112.3333,-425.5 102.6667,-425.5 102.6667,-425.5 97.8333,-425.5 93,-420.6667 93,-415.8333 93,-415.8333 93,-406.1667 93,-406.1667 93,-401.3333 97.8333,-396.5 102.6667,-396.5"></path>
<text text-anchor="middle" x="107.2992" y="-406.2" font-family="Courier,monospace" font-size="16.00" fill="#000000">C</text>
</g>
<!-- node_1&#45;&gt;node_4 -->
<g id="edge1" class="edge">
<title>node_1-&gt;node_4</title>
<path fill="none" stroke="#000000" d="M107.5,-462.3525C107.5,-453.9786 107.5,-443.2929 107.5,-433.8398"></path>
<polygon fill="#000000" stroke="#000000" points="110.3001,-433.6066 107.5,-425.6066 104.7001,-433.6066 110.3001,-433.6066"></polygon>
</g>
<!-- node_1608711413230 -->
<g id="node_1608711413230" class="node">
<title>node_1608711413230</title>
<path fill="#bfefff" stroke="#000000" stroke-width=".5" d="M102.6667,-330.5C102.6667,-330.5 112.3333,-330.5 112.3333,-330.5 117.1667,-330.5 122,-335.3333 122,-340.1667 122,-340.1667 122,-349.8333 122,-349.8333 122,-354.6667 117.1667,-359.5 112.3333,-359.5 112.3333,-359.5 102.6667,-359.5 102.6667,-359.5 97.8333,-359.5 93,-354.6667 93,-349.8333 93,-349.8333 93,-340.1667 93,-340.1667 93,-335.3333 97.8333,-330.5 102.6667,-330.5"></path>
<text text-anchor="middle" x="107.2992" y="-340.2" font-family="Courier,monospace" font-size="16.00" fill="#000000">A</text>
</g>
<!-- node_4&#45;&gt;node_1608711413230 -->
<g id="edge2" class="edge">
<title>node_4-&gt;node_1608711413230</title>
<path fill="none" stroke="#000000" d="M107.5,-396.3525C107.5,-387.9786 107.5,-377.2929 107.5,-367.8398"></path>
<polygon fill="#000000" stroke="#000000" points="110.3001,-367.6066 107.5,-359.6066 104.7001,-367.6066 110.3001,-367.6066"></polygon>
</g>
<!-- node_1608711426634 -->
<g id="node_1608711426634" class="node">
<title>node_1608711426634</title>
<path fill="#bfefff" stroke="#000000" stroke-width=".5" d="M79.6667,-264.5C79.6667,-264.5 89.3333,-264.5 89.3333,-264.5 94.1667,-264.5 99,-269.3333 99,-274.1667 99,-274.1667 99,-283.8333 99,-283.8333 99,-288.6667 94.1667,-293.5 89.3333,-293.5 89.3333,-293.5 79.6667,-293.5 79.6667,-293.5 74.8333,-293.5 70,-288.6667 70,-283.8333 70,-283.8333 70,-274.1667 70,-274.1667 70,-269.3333 74.8333,-264.5 79.6667,-264.5"></path>
<text text-anchor="middle" x="84.2992" y="-274.2" font-family="Courier,monospace" font-size="16.00" fill="#000000">P</text>
</g>
<!-- node_1608711413230&#45;&gt;node_1608711426634 -->
<g id="edge3" class="edge">
<title>node_1608711413230-&gt;node_1608711426634</title>
<path fill="none" stroke="#000000" d="M102.3956,-330.3525C99.4178,-321.8077 95.6013,-310.8558 92.2582,-301.2626"></path>
<polygon fill="#000000" stroke="#000000" points="94.8669,-300.2396 89.5902,-293.6066 89.5788,-302.0825 94.8669,-300.2396"></polygon>
</g>
<!-- node_1608711419628 -->
<g id="node_1608711419628" class="node">
<title>node_1608711419628</title>
<path fill="#bfefff" stroke="#000000" stroke-width=".5" d="M126.6667,-264.5C126.6667,-264.5 136.3333,-264.5 136.3333,-264.5 141.1667,-264.5 146,-269.3333 146,-274.1667 146,-274.1667 146,-283.8333 146,-283.8333 146,-288.6667 141.1667,-293.5 136.3333,-293.5 136.3333,-293.5 126.6667,-293.5 126.6667,-293.5 121.8333,-293.5 117,-288.6667 117,-283.8333 117,-283.8333 117,-274.1667 117,-274.1667 117,-269.3333 121.8333,-264.5 126.6667,-264.5"></path>
<text text-anchor="middle" x="131.2992" y="-274.2" font-family="Courier,monospace" font-size="16.00" fill="#000000">T</text>
</g>
<!-- node_1608711413230&#45;&gt;node_1608711419628 -->
<g id="edge4" class="edge">
<title>node_1608711413230-&gt;node_1608711419628</title>
<path fill="none" stroke="#000000" d="M112.8264,-330.3525C115.9336,-321.8077 119.9161,-310.8558 123.4045,-301.2626"></path>
<polygon fill="#000000" stroke="#000000" points="126.0859,-302.0819 126.1885,-293.6066 120.8231,-300.168 126.0859,-302.0819"></polygon>
</g>
<!-- node_1608711460076 -->
<g id="node_1608711460076" class="node">
<title>node_1608711460076</title>
<path fill="#bfefff" stroke="#000000" stroke-width=".5" d="M56.6667,-198.5C56.6667,-198.5 66.3333,-198.5 66.3333,-198.5 71.1667,-198.5 76,-203.3333 76,-208.1667 76,-208.1667 76,-217.8333 76,-217.8333 76,-222.6667 71.1667,-227.5 66.3333,-227.5 66.3333,-227.5 56.6667,-227.5 56.6667,-227.5 51.8333,-227.5 47,-222.6667 47,-217.8333 47,-217.8333 47,-208.1667 47,-208.1667 47,-203.3333 51.8333,-198.5 56.6667,-198.5"></path>
<text text-anchor="middle" x="61.2992" y="-208.2" font-family="Courier,monospace" font-size="16.00" fill="#000000">T</text>
</g>
<!-- node_1608711426634&#45;&gt;node_1608711460076 -->
<g id="edge5" class="edge">
<title>node_1608711426634-&gt;node_1608711460076</title>
<path fill="none" stroke="#000000" d="M79.3956,-264.3525C76.4178,-255.8077 72.6013,-244.8558 69.2582,-235.2626"></path>
<polygon fill="#000000" stroke="#000000" points="71.8669,-234.2396 66.5902,-227.6066 66.5788,-236.0825 71.8669,-234.2396"></polygon>
</g>
<!-- node_1608711447129 -->
<g id="node_1608711447129" class="node">
<title>node_1608711447129</title>
<path fill="#bfefff" stroke="#000000" stroke-width=".5" d="M103.6667,-198.5C103.6667,-198.5 113.3333,-198.5 113.3333,-198.5 118.1667,-198.5 123,-203.3333 123,-208.1667 123,-208.1667 123,-217.8333 123,-217.8333 123,-222.6667 118.1667,-227.5 113.3333,-227.5 113.3333,-227.5 103.6667,-227.5 103.6667,-227.5 98.8333,-227.5 94,-222.6667 94,-217.8333 94,-217.8333 94,-208.1667 94,-208.1667 94,-203.3333 98.8333,-198.5 103.6667,-198.5"></path>
<text text-anchor="middle" x="108.2992" y="-208.2" font-family="Courier,monospace" font-size="16.00" fill="#000000">I</text>
</g>
<!-- node_1608711426634&#45;&gt;node_1608711447129 -->
<g id="edge6" class="edge">
<title>node_1608711426634-&gt;node_1608711447129</title>
<path fill="none" stroke="#000000" d="M89.8264,-264.3525C92.9336,-255.8077 96.9161,-244.8558 100.4045,-235.2626"></path>
<polygon fill="#000000" stroke="#000000" points="103.0859,-236.0819 103.1885,-227.6066 97.8231,-234.168 103.0859,-236.0819"></polygon>
</g>
<!-- node_1608711554993 -->
<g id="node_1608711554993" class="node">
<title>node_1608711554993</title>
<path fill="#bfefff" stroke="#000000" stroke-width=".5" d="M9.6667,-132.5C9.6667,-132.5 19.3333,-132.5 19.3333,-132.5 24.1667,-132.5 29,-137.3333 29,-142.1667 29,-142.1667 29,-151.8333 29,-151.8333 29,-156.6667 24.1667,-161.5 19.3333,-161.5 19.3333,-161.5 9.6667,-161.5 9.6667,-161.5 4.8333,-161.5 0,-156.6667 0,-151.8333 0,-151.8333 0,-142.1667 0,-142.1667 0,-137.3333 4.8333,-132.5 9.6667,-132.5"></path>
<text text-anchor="middle" x="14.2992" y="-142.2" font-family="Courier,monospace" font-size="16.00" fill="#000000">I</text>
</g>
<!-- node_1608711460076&#45;&gt;node_1608711554993 -->
<g id="edge7" class="edge">
<title>node_1608711460076-&gt;node_1608711554993</title>
<path fill="none" stroke="#000000" d="M51.0692,-198.3525C44.8017,-189.5513 36.7157,-178.1965 29.7415,-168.403"></path>
<polygon fill="#000000" stroke="#000000" points="31.8231,-166.4989 24.9017,-161.6066 27.2615,-169.7474 31.8231,-166.4989"></polygon>
</g>
<!-- node_1608711526974 -->
<g id="node_1608711526974" class="node">
<title>node_1608711526974</title>
<path fill="#bfefff" stroke="#000000" stroke-width=".5" d="M56.6667,-132.5C56.6667,-132.5 66.3333,-132.5 66.3333,-132.5 71.1667,-132.5 76,-137.3333 76,-142.1667 76,-142.1667 76,-151.8333 76,-151.8333 76,-156.6667 71.1667,-161.5 66.3333,-161.5 66.3333,-161.5 56.6667,-161.5 56.6667,-161.5 51.8333,-161.5 47,-156.6667 47,-151.8333 47,-151.8333 47,-142.1667 47,-142.1667 47,-137.3333 51.8333,-132.5 56.6667,-132.5"></path>
<text text-anchor="middle" x="61.2992" y="-142.2" font-family="Courier,monospace" font-size="16.00" fill="#000000">A</text>
</g>
<!-- node_1608711460076&#45;&gt;node_1608711526974 -->
<g id="edge8" class="edge">
<title>node_1608711460076-&gt;node_1608711526974</title>
<path fill="none" stroke="#000000" d="M61.5,-198.3525C61.5,-189.9786 61.5,-179.2929 61.5,-169.8398"></path>
<polygon fill="#000000" stroke="#000000" points="64.3001,-169.6066 61.5,-161.6066 58.7001,-169.6066 64.3001,-169.6066"></polygon>
</g>
<!-- node_1608711473342 -->
<g id="node_1608711473342" class="node">
<title>node_1608711473342</title>
<path fill="#bfefff" stroke="#000000" stroke-width=".5" d="M103.6667,-132.5C103.6667,-132.5 113.3333,-132.5 113.3333,-132.5 118.1667,-132.5 123,-137.3333 123,-142.1667 123,-142.1667 123,-151.8333 123,-151.8333 123,-156.6667 118.1667,-161.5 113.3333,-161.5 113.3333,-161.5 103.6667,-161.5 103.6667,-161.5 98.8333,-161.5 94,-156.6667 94,-151.8333 94,-151.8333 94,-142.1667 94,-142.1667 94,-137.3333 98.8333,-132.5 103.6667,-132.5"></path>
<text text-anchor="middle" x="108.2992" y="-142.2" font-family="Courier,monospace" font-size="16.00" fill="#000000">T</text>
</g>
<!-- node_1608711447129&#45;&gt;node_1608711473342 -->
<g id="edge9" class="edge">
<title>node_1608711447129-&gt;node_1608711473342</title>
<path fill="none" stroke="#000000" d="M108.5,-198.3525C108.5,-189.9786 108.5,-179.2929 108.5,-169.8398"></path>
<polygon fill="#000000" stroke="#000000" points="111.3001,-169.6066 108.5,-161.6066 105.7001,-169.6066 111.3001,-169.6066"></polygon>
</g>
<!-- node_1608711562203 -->
<g id="node_1608711562203" class="node">
<title>node_1608711562203</title>
<path fill="#bfefff" stroke="#000000" stroke-width=".5" d="M9.6667,-66.5C9.6667,-66.5 19.3333,-66.5 19.3333,-66.5 24.1667,-66.5 29,-71.3333 29,-76.1667 29,-76.1667 29,-85.8333 29,-85.8333 29,-90.6667 24.1667,-95.5 19.3333,-95.5 19.3333,-95.5 9.6667,-95.5 9.6667,-95.5 4.8333,-95.5 0,-90.6667 0,-85.8333 0,-85.8333 0,-76.1667 0,-76.1667 0,-71.3333 4.8333,-66.5 9.6667,-66.5"></path>
<text text-anchor="middle" x="14.2992" y="-76.2" font-family="Courier,monospace" font-size="16.00" fill="#000000">O</text>
</g>
<!-- node_1608711554993&#45;&gt;node_1608711562203 -->
<g id="edge10" class="edge">
<title>node_1608711554993-&gt;node_1608711562203</title>
<path fill="none" stroke="#000000" d="M14.5,-132.3525C14.5,-123.9786 14.5,-113.2929 14.5,-103.8398"></path>
<polygon fill="#000000" stroke="#000000" points="17.3001,-103.6066 14.5,-95.6066 11.7001,-103.6066 17.3001,-103.6066"></polygon>
</g>
<!-- node_1608711536146 -->
<g id="node_1608711536146" class="node">
<title>node_1608711536146</title>
<path fill="#bfefff" stroke="#000000" stroke-width=".5" d="M56.6667,-66.5C56.6667,-66.5 66.3333,-66.5 66.3333,-66.5 71.1667,-66.5 76,-71.3333 76,-76.1667 76,-76.1667 76,-85.8333 76,-85.8333 76,-90.6667 71.1667,-95.5 66.3333,-95.5 66.3333,-95.5 56.6667,-95.5 56.6667,-95.5 51.8333,-95.5 47,-90.6667 47,-85.8333 47,-85.8333 47,-76.1667 47,-76.1667 47,-71.3333 51.8333,-66.5 56.6667,-66.5"></path>
<text text-anchor="middle" x="61.2992" y="-76.2" font-family="Courier,monospace" font-size="16.00" fill="#000000">I</text>
</g>
<!-- node_1608711526974&#45;&gt;node_1608711536146 -->
<g id="edge11" class="edge">
<title>node_1608711526974-&gt;node_1608711536146</title>
<path fill="none" stroke="#000000" d="M61.5,-132.3525C61.5,-123.9786 61.5,-113.2929 61.5,-103.8398"></path>
<polygon fill="#000000" stroke="#000000" points="64.3001,-103.6066 61.5,-95.6066 58.7001,-103.6066 64.3001,-103.6066"></polygon>
</g>
<!-- node_1608711500352 -->
<g id="node_1608711500352" class="node">
<title>node_1608711500352</title>
<path fill="#bfefff" stroke="#000000" stroke-width=".5" d="M103.6667,-66.5C103.6667,-66.5 113.3333,-66.5 113.3333,-66.5 118.1667,-66.5 123,-71.3333 123,-76.1667 123,-76.1667 123,-85.8333 123,-85.8333 123,-90.6667 118.1667,-95.5 113.3333,-95.5 113.3333,-95.5 103.6667,-95.5 103.6667,-95.5 98.8333,-95.5 94,-90.6667 94,-85.8333 94,-85.8333 94,-76.1667 94,-76.1667 94,-71.3333 98.8333,-66.5 103.6667,-66.5"></path>
<text text-anchor="middle" x="108.2992" y="-76.2" font-family="Courier,monospace" font-size="16.00" fill="#000000">A</text>
</g>
<!-- node_1608711473342&#45;&gt;node_1608711500352 -->
<g id="edge12" class="edge">
<title>node_1608711473342-&gt;node_1608711500352</title>
<path fill="none" stroke="#000000" d="M108.5,-132.3525C108.5,-123.9786 108.5,-113.2929 108.5,-103.8398"></path>
<polygon fill="#000000" stroke="#000000" points="111.3001,-103.6066 108.5,-95.6066 105.7001,-103.6066 111.3001,-103.6066"></polygon>
</g>
<!-- node_1608711585797 -->
<g id="node_1608711585797" class="node">
<title>node_1608711585797</title>
<path fill="#bfefff" stroke="#000000" stroke-width=".5" d="M9.6667,-.5C9.6667,-.5 19.3333,-.5 19.3333,-.5 24.1667,-.5 29,-5.3333 29,-10.1667 29,-10.1667 29,-19.8333 29,-19.8333 29,-24.6667 24.1667,-29.5 19.3333,-29.5 19.3333,-29.5 9.6667,-29.5 9.6667,-29.5 4.8333,-29.5 0,-24.6667 0,-19.8333 0,-19.8333 0,-10.1667 0,-10.1667 0,-5.3333 4.8333,-.5 9.6667,-.5"></path>
<text text-anchor="middle" x="14.2992" y="-10.2" font-family="Courier,monospace" font-size="16.00" fill="#000000">N</text>
</g>
<!-- node_1608711562203&#45;&gt;node_1608711585797 -->
<g id="edge13" class="edge">
<title>node_1608711562203-&gt;node_1608711585797</title>
<path fill="none" stroke="#000000" d="M14.5,-66.3525C14.5,-57.9786 14.5,-47.2929 14.5,-37.8398"></path>
<polygon fill="#000000" stroke="#000000" points="17.3001,-37.6066 14.5,-29.6066 11.7001,-37.6066 17.3001,-37.6066"></polygon>
</g>
<!-- node_1608711544584 -->
<g id="node_1608711544584" class="node">
<title>node_1608711544584</title>
<path fill="#bfefff" stroke="#000000" stroke-width=".5" d="M56.6667,-.5C56.6667,-.5 66.3333,-.5 66.3333,-.5 71.1667,-.5 76,-5.3333 76,-10.1667 76,-10.1667 76,-19.8333 76,-19.8333 76,-24.6667 71.1667,-29.5 66.3333,-29.5 66.3333,-29.5 56.6667,-29.5 56.6667,-29.5 51.8333,-29.5 47,-24.6667 47,-19.8333 47,-19.8333 47,-10.1667 47,-10.1667 47,-5.3333 51.8333,-.5 56.6667,-.5"></path>
<text text-anchor="middle" x="61.2992" y="-10.2" font-family="Courier,monospace" font-size="16.00" fill="#000000">N</text>
</g>
<!-- node_1608711536146&#45;&gt;node_1608711544584 -->
<g id="edge14" class="edge">
<title>node_1608711536146-&gt;node_1608711544584</title>
<path fill="none" stroke="#000000" d="M61.5,-66.3525C61.5,-57.9786 61.5,-47.2929 61.5,-37.8398"></path>
<polygon fill="#000000" stroke="#000000" points="64.3001,-37.6066 61.5,-29.6066 58.7001,-37.6066 64.3001,-37.6066"></polygon>
</g>
<!-- node_1608711509621 -->
<g id="node_1608711509621" class="node">
<title>node_1608711509621</title>
<path fill="#bfefff" stroke="#000000" stroke-width=".5" d="M103.6667,-.5C103.6667,-.5 113.3333,-.5 113.3333,-.5 118.1667,-.5 123,-5.3333 123,-10.1667 123,-10.1667 123,-19.8333 123,-19.8333 123,-24.6667 118.1667,-29.5 113.3333,-29.5 113.3333,-29.5 103.6667,-29.5 103.6667,-29.5 98.8333,-29.5 94,-24.6667 94,-19.8333 94,-19.8333 94,-10.1667 94,-10.1667 94,-5.3333 98.8333,-.5 103.6667,-.5"></path>
<text text-anchor="middle" x="108.2992" y="-10.2" font-family="Courier,monospace" font-size="16.00" fill="#000000">L</text>
</g>
<!-- node_1608711500352&#45;&gt;node_1608711509621 -->
<g id="edge15" class="edge">
<title>node_1608711500352-&gt;node_1608711509621</title>
<path fill="none" stroke="#000000" d="M108.5,-66.3525C108.5,-57.9786 108.5,-47.2929 108.5,-37.8398"></path>
<polygon fill="#000000" stroke="#000000" points="111.3001,-37.6066 108.5,-29.6066 105.7001,-37.6066 111.3001,-37.6066"></polygon>
</g>
</g>
</svg>