<svg width="153pt" height="302pt" viewBox="0.00 0.00 152.90 302.00" xmlns="http://www.w3.org/2000/svg" xmlns:xlink="http://www.w3.org/1999/xlink">
<g id="graph0" class="graph" transform="scale(1 1) rotate(0) translate(4 298)">
<title>%0</title>
<!-- node_1 -->
<g id="node_1" class="node">
<title>node_1</title>
<path fill="#bfefff" stroke="#000000" stroke-width=".5" d="M88.8675,-264.5C88.8675,-264.5 123.9277,-264.5 123.9277,-264.5 128.7611,-264.5 133.5944,-269.3333 133.5944,-274.1667 133.5944,-274.1667 133.5944,-283.8333 133.5944,-283.8333 133.5944,-288.6667 128.7611,-293.5 123.9277,-293.5 123.9277,-293.5 88.8675,-293.5 88.8675,-293.5 84.0341,-293.5 79.2008,-288.6667 79.2008,-283.8333 79.2008,-283.8333 79.2008,-274.1667 79.2008,-274.1667 79.2008,-269.3333 84.0341,-264.5 88.8675,-264.5"></path>
<text text-anchor="middle" x="106.3976" y="-274.2" font-family="Courier,monospace" font-size="16.00" fill="#000000">root</text>
</g>
<!-- node_3 -->
<g id="node_3" class="node">
<title>node_3</title>
<path fill="#bfefff" stroke="#000000" stroke-width=".5" d="M98.4659,-198.5C98.4659,-198.5 114.3293,-198.5 114.3293,-198.5 119.1627,-198.5 123.996,-203.3333 123.996,-208.1667 123.996,-208.1667 123.996,-217.8333 123.996,-217.8333 123.996,-222.6667 119.1627,-227.5 114.3293,-227.5 114.3293,-227.5 98.4659,-227.5 98.4659,-227.5 93.6325,-227.5 88.7992,-222.6667 88.7992,-217.8333 88.7992,-217.8333 88.7992,-208.1667 88.7992,-208.1667 88.7992,-203.3333 93.6325,-198.5 98.4659,-198.5"></path>
<text text-anchor="middle" x="106.3976" y="-208.2" font-family="Courier,monospace" font-size="16.00" fill="#000000">CA</text>
</g>
<!-- node_1&#45;&gt;node_3 -->
<g id="edge1" class="edge">
<title>node_1-&gt;node_3</title>
<path fill="none" stroke="#000000" d="M106.3976,-264.3525C106.3976,-255.9786 106.3976,-245.2929 106.3976,-235.8398"></path>
<polygon fill="#000000" stroke="#000000" points="109.1977,-235.6066 106.3976,-227.6066 103.5977,-235.6066 109.1977,-235.6066"></polygon>
</g>
<!-- node_1608711867437 -->
<g id="node_1608711867437" class="node">
<title>node_1608711867437</title>
<path fill="#bfefff" stroke="#000000" stroke-width=".5" d="M78.5643,-132.5C78.5643,-132.5 88.2309,-132.5 88.2309,-132.5 93.0643,-132.5 97.8976,-137.3333 97.8976,-142.1667 97.8976,-142.1667 97.8976,-151.8333 97.8976,-151.8333 97.8976,-156.6667 93.0643,-161.5 88.2309,-161.5 88.2309,-161.5 78.5643,-161.5 78.5643,-161.5 73.7309,-161.5 68.8976,-156.6667 68.8976,-151.8333 68.8976,-151.8333 68.8976,-142.1667 68.8976,-142.1667 68.8976,-137.3333 73.7309,-132.5 78.5643,-132.5"></path>
<text text-anchor="middle" x="83.1968" y="-142.2" font-family="Courier,monospace" font-size="16.00" fill="#000000">P</text>
</g>
<!-- node_3&#45;&gt;node_1608711867437 -->
<g id="edge2" class="edge">
<title>node_3-&gt;node_1608711867437</title>
<path fill="none" stroke="#000000" d="M101.2932,-198.3525C98.3154,-189.8077 94.4989,-178.8558 91.1558,-169.2626"></path>
<polygon fill="#000000" stroke="#000000" points="93.7645,-168.2396 88.4878,-161.6066 88.4764,-170.0825 93.7645,-168.2396"></polygon>
</g>
<!-- node_1608711862438 -->
<g id="node_1608711862438" class="node">
<title>node_1608711862438</title>
<path fill="#bfefff" stroke="#000000" stroke-width=".5" d="M125.5643,-132.5C125.5643,-132.5 135.2309,-132.5 135.2309,-132.5 140.0643,-132.5 144.8976,-137.3333 144.8976,-142.1667 144.8976,-142.1667 144.8976,-151.8333 144.8976,-151.8333 144.8976,-156.6667 140.0643,-161.5 135.2309,-161.5 135.2309,-161.5 125.5643,-161.5 125.5643,-161.5 120.7309,-161.5 115.8976,-156.6667 115.8976,-151.8333 115.8976,-151.8333 115.8976,-142.1667 115.8976,-142.1667 115.8976,-137.3333 120.7309,-132.5 125.5643,-132.5"></path>
<text text-anchor="middle" x="130.1968" y="-142.2" font-family="Courier,monospace" font-size="16.00" fill="#000000">T</text>
</g>
<!-- node_3&#45;&gt;node_1608711862438 -->
<g id="edge3" class="edge">
<title>node_3-&gt;node_1608711862438</title>
<path fill="none" stroke="#000000" d="M111.724,-198.3525C114.8312,-189.8077 118.8137,-178.8558 122.3021,-169.2626"></path>
<polygon fill="#000000" stroke="#000000" points="124.9835,-170.0819 125.0861,-161.6066 119.7207,-168.168 124.9835,-170.0819"></polygon>
</g>
<!-- node_1608711881011 -->
<g id="node_1608711881011" class="node">
<title>node_1608711881011</title>
<path fill="#bfefff" stroke="#000000" stroke-width=".5" d="M48.5643,-66.5C48.5643,-66.5 58.2309,-66.5 58.2309,-66.5 63.0643,-66.5 67.8976,-71.3333 67.8976,-76.1667 67.8976,-76.1667 67.8976,-85.8333 67.8976,-85.8333 67.8976,-90.6667 63.0643,-95.5 58.2309,-95.5 58.2309,-95.5 48.5643,-95.5 48.5643,-95.5 43.7309,-95.5 38.8976,-90.6667 38.8976,-85.8333 38.8976,-85.8333 38.8976,-76.1667 38.8976,-76.1667 38.8976,-71.3333 43.7309,-66.5 48.5643,-66.5"></path>
<text text-anchor="middle" x="53.1968" y="-76.2" font-family="Courier,monospace" font-size="16.00" fill="#000000">T</text>
</g>
<!-- node_1608711867437&#45;&gt;node_1608711881011 -->
<g id="edge4" class="edge">
<title>node_1608711867437-&gt;node_1608711881011</title>
<path fill="none" stroke="#000000" d="M76.7396,-132.3525C72.8168,-123.7222 67.7778,-112.6365 63.3864,-102.9753"></path>
<polygon fill="#000000" stroke="#000000" points="65.8965,-101.7309 60.037,-95.6066 60.7984,-104.0482 65.8965,-101.7309"></polygon>
</g>
<!-- node_1608711873628 -->
<g id="node_1608711873628" class="node">
<title>node_1608711873628</title>
<path fill="#bfefff" stroke="#000000" stroke-width=".5" d="M95.8675,-66.5C95.8675,-66.5 130.9277,-66.5 130.9277,-66.5 135.7611,-66.5 140.5944,-71.3333 140.5944,-76.1667 140.5944,-76.1667 140.5944,-85.8333 140.5944,-85.8333 140.5944,-90.6667 135.7611,-95.5 130.9277,-95.5 130.9277,-95.5 95.8675,-95.5 95.8675,-95.5 91.0341,-95.5 86.2008,-90.6667 86.2008,-85.8333 86.2008,-85.8333 86.2008,-76.1667 86.2008,-76.1667 86.2008,-71.3333 91.0341,-66.5 95.8675,-66.5"></path>
<text text-anchor="middle" x="113.3976" y="-76.2" font-family="Courier,monospace" font-size="16.00" fill="#000000">ITAL</text>
</g>
<!-- node_1608711867437&#45;&gt;node_1608711873628 -->
<g id="edge5" class="edge">
<title>node_1608711867437-&gt;node_1608711873628</title>
<path fill="none" stroke="#000000" d="M90.0556,-132.3525C93.9784,-123.7222 99.0174,-112.6365 103.4088,-102.9753"></path>
<polygon fill="#000000" stroke="#000000" points="105.9968,-104.0482 106.7582,-95.6066 100.8987,-101.7309 105.9968,-104.0482"></polygon>
</g>
<!-- node_1608711893845 -->
<g id="node_1608711893845" class="node">
<title>node_1608711893845</title>
<path fill="#bfefff" stroke="#000000" stroke-width=".5" d="M9.6667,-.5C9.6667,-.5 35.1285,-.5 35.1285,-.5 39.9619,-.5 44.7952,-5.3333 44.7952,-10.1667 44.7952,-10.1667 44.7952,-19.8333 44.7952,-19.8333 44.7952,-24.6667 39.9619,-29.5 35.1285,-29.5 35.1285,-29.5 9.6667,-29.5 9.6667,-29.5 4.8333,-29.5 0,-24.6667 0,-19.8333 0,-19.8333 0,-10.1667 0,-10.1667 0,-5.3333 4.8333,-.5 9.6667,-.5"></path>
<text text-anchor="middle" x="22.3976" y="-10.2" font-family="Courier,monospace" font-size="16.00" fill="#000000">ION</text>
</g>
<!-- node_1608711881011&#45;&gt;node_1608711893845 -->
<g id="edge6" class="edge">
<title>node_1608711881011-&gt;node_1608711893845</title>
<path fill="none" stroke="#000000" d="M46.5177,-66.3525C42.4641,-57.7222 37.2572,-46.6365 32.7193,-36.9753"></path>
<polygon fill="#000000" stroke="#000000" points="35.1938,-35.6572 29.2583,-29.6066 30.1251,-38.038 35.1938,-35.6572"></polygon>
</g>
<!-- node_1608711888930 -->
<g id="node_1608711888930" class="node">
<title>node_1608711888930</title>
<path fill="#bfefff" stroke="#000000" stroke-width=".5" d="M72.6667,-.5C72.6667,-.5 98.1285,-.5 98.1285,-.5 102.9619,-.5 107.7952,-5.3333 107.7952,-10.1667 107.7952,-10.1667 107.7952,-19.8333 107.7952,-19.8333 107.7952,-24.6667 102.9619,-29.5 98.1285,-29.5 98.1285,-29.5 72.6667,-29.5 72.6667,-29.5 67.8333,-29.5 63,-24.6667 63,-19.8333 63,-19.8333 63,-10.1667 63,-10.1667 63,-5.3333 67.8333,-.5 72.6667,-.5"></path>
<text text-anchor="middle" x="85.3976" y="-10.2" font-family="Courier,monospace" font-size="16.00" fill="#000000">AIN</text>
</g>
<!-- node_1608711881011&#45;&gt;node_1608711888930 -->
<g id="edge7" class="edge">
<title>node_1608711881011-&gt;node_1608711888930</title>
<path fill="none" stroke="#000000" d="M60.4994,-66.3525C64.6838,-57.7222 70.0587,-46.6365 74.7429,-36.9753"></path>
<polygon fill="#000000" stroke="#000000" points="77.3449,-38.0267 78.3156,-29.6066 72.3059,-35.5835 77.3449,-38.0267"></polygon>
</g>
</g>
</svg>