<svg width="131pt" height="302pt" viewBox="0.00 0.00 131.00 302.00" xmlns="http://www.w3.org/2000/svg" xmlns:xlink="http://www.w3.org/1999/xlink">
<g id="graph0" class="graph" transform="scale(1 1) rotate(0) translate(4 298)">
<title>%0</title>
<!-- node_1 -->
<g id="node_1" class="node">
<title>node_1</title>
<path fill="#bfefff" stroke="#000000" stroke-width=".5" d="M66.9699,-264.5C66.9699,-264.5 102.0301,-264.5 102.0301,-264.5 106.8635,-264.5 111.6968,-269.3333 111.6968,-274.1667 111.6968,-274.1667 111.6968,-283.8333 111.6968,-283.8333 111.6968,-288.6667 106.8635,-293.5 102.0301,-293.5 102.0301,-293.5 66.9699,-293.5 66.9699,-293.5 62.1365,-293.5 57.3032,-288.6667 57.3032,-283.8333 57.3032,-283.8333 57.3032,-274.1667 57.3032,-274.1667 57.3032,-269.3333 62.1365,-264.5 66.9699,-264.5"></path>
<text text-anchor="middle" x="84.5" y="-274.2" font-family="Courier,monospace" font-size="16.00" fill="#000000">root</text>
</g>
<!-- node_3 -->
<g id="node_3" class="node">
<title>node_3</title>
<path fill="#bfefff" stroke="#000000" stroke-width=".5" d="M79.6667,-198.5C79.6667,-198.5 89.3333,-198.5 89.3333,-198.5 94.1667,-198.5 99,-203.3333 99,-208.1667 99,-208.1667 99,-217.8333 99,-217.8333 99,-222.6667 94.1667,-227.5 89.3333,-227.5 89.3333,-227.5 79.6667,-227.5 79.6667,-227.5 74.8333,-227.5 70,-222.6667 70,-217.8333 70,-217.8333 70,-208.1667 70,-208.1667 70,-203.3333 74.8333,-198.5 79.6667,-198.5"></path>
<text text-anchor="middle" x="84.2992" y="-208.2" font-family="Courier,monospace" font-size="16.00" fill="#000000">C</text>
</g>
<!-- node_1&#45;&gt;node_3 -->
<g id="edge1" class="edge">
<title>node_1-&gt;node_3</title>
<path fill="none" stroke="#000000" d="M84.5,-264.3525C84.5,-255.9786 84.5,-245.2929 84.5,-235.8398"></path>
<polygon fill="#000000" stroke="#000000" points="87.3001,-235.6066 84.5,-227.6066 81.7001,-235.6066 87.3001,-235.6066"></polygon>
</g>
<!-- node_1608711945133 -->
<g id="node_1608711945133" class="node">
<title>node_1608711945133</title>
<path fill="#bfefff" stroke="#000000" stroke-width=".5" d="M56.6667,-132.5C56.6667,-132.5 66.3333,-132.5 66.3333,-132.5 71.1667,-132.5 76,-137.3333 76,-142.1667 76,-142.1667 76,-151.8333 76,-151.8333 76,-156.6667 71.1667,-161.5 66.3333,-161.5 66.3333,-161.5 56.6667,-161.5 56.6667,-161.5 51.8333,-161.5 47,-156.6667 47,-151.8333 47,-151.8333 47,-142.1667 47,-142.1667 47,-137.3333 51.8333,-132.5 56.6667,-132.5"></path>
<text text-anchor="middle" x="61.2992" y="-142.2" font-family="Courier,monospace" font-size="16.00" fill="#000000">A</text>
</g>
<!-- node_3&#45;&gt;node_1608711945133 -->
<g id="edge2" class="edge">
<title>node_3-&gt;node_1608711945133</title>
<path fill="none" stroke="#000000" d="M79.3956,-198.3525C76.4178,-189.8077 72.6013,-178.8558 69.2582,-169.2626"></path>
<polygon fill="#000000" stroke="#000000" points="71.8669,-168.2396 66.5902,-161.6066 66.5788,-170.0825 71.8669,-168.2396"></polygon>
</g>
<!-- node_1608711940032 -->
<g id="node_1608711940032" class="node">
<title>node_1608711940032</title>
<path fill="#bfefff" stroke="#000000" stroke-width=".5" d="M103.6667,-132.5C103.6667,-132.5 113.3333,-132.5 113.3333,-132.5 118.1667,-132.5 123,-137.3333 123,-142.1667 123,-142.1667 123,-151.8333 123,-151.8333 123,-156.6667 118.1667,-161.5 113.3333,-161.5 113.3333,-161.5 103.6667,-161.5 103.6667,-161.5 98.8333,-161.5 94,-156.6667 94,-151.8333 94,-151.8333 94,-142.1667 94,-142.1667 94,-137.3333 98.8333,-132.5 103.6667,-132.5"></path>
<text text-anchor="middle" x="108.2992" y="-142.2" font-family="Courier,monospace" font-size="16.00" fill="#000000">O</text>
</g>
<!-- node_3&#45;&gt;node_1608711940032 -->
<g id="edge3" class="edge">
<title>node_3-&gt;node_1608711940032</title>
<path fill="none" stroke="#000000" d="M89.8264,-198.3525C92.9336,-189.8077 96.9161,-178.8558 100.4045,-169.2626"></path>
<polygon fill="#000000" stroke="#000000" points="103.0859,-170.0819 103.1885,-161.6066 97.8231,-168.168 103.0859,-170.0819"></polygon>
</g>
<!-- node_1608711965519 -->
<g id="node_1608711965519" class="node">
<title>node_1608711965519</title>
<path fill="#bfefff" stroke="#000000" stroke-width=".5" d="M9.6667,-66.5C9.6667,-66.5 19.3333,-66.5 19.3333,-66.5 24.1667,-66.5 29,-71.3333 29,-76.1667 29,-76.1667 29,-85.8333 29,-85.8333 29,-90.6667 24.1667,-95.5 19.3333,-95.5 19.3333,-95.5 9.6667,-95.5 9.6667,-95.5 4.8333,-95.5 0,-90.6667 0,-85.8333 0,-85.8333 0,-76.1667 0,-76.1667 0,-71.3333 4.8333,-66.5 9.6667,-66.5"></path>
<text text-anchor="middle" x="14.2992" y="-76.2" font-family="Courier,monospace" font-size="16.00" fill="#000000">R</text>
</g>
<!-- node_1608711945133&#45;&gt;node_1608711965519 -->
<g id="edge4" class="edge">
<title>node_1608711945133-&gt;node_1608711965519</title>
<path fill="none" stroke="#000000" d="M51.0692,-132.3525C44.8017,-123.5513 36.7157,-112.1965 29.7415,-102.403"></path>
<polygon fill="#000000" stroke="#000000" points="31.8231,-100.4989 24.9017,-95.6066 27.2615,-103.7474 31.8231,-100.4989"></polygon>
</g>
<!-- node_1608711959066 -->
<g id="node_1608711959066" class="node">
<title>node_1608711959066</title>
<path fill="#bfefff" stroke="#000000" stroke-width=".5" d="M56.6667,-66.5C56.6667,-66.5 66.3333,-66.5 66.3333,-66.5 71.1667,-66.5 76,-71.3333 76,-76.1667 76,-76.1667 76,-85.8333 76,-85.8333 76,-90.6667 71.1667,-95.5 66.3333,-95.5 66.3333,-95.5 56.6667,-95.5 56.6667,-95.5 51.8333,-95.5 47,-90.6667 47,-85.8333 47,-85.8333 47,-76.1667 47,-76.1667 47,-71.3333 51.8333,-66.5 56.6667,-66.5"></path>
<text text-anchor="middle" x="61.2992" y="-76.2" font-family="Courier,monospace" font-size="16.00" fill="#000000">P</text>
</g>
<!-- node_1608711945133&#45;&gt;node_1608711959066 -->
<g id="edge5" class="edge">
<title>node_1608711945133-&gt;node_1608711959066</title>
<path fill="none" stroke="#000000" d="M61.5,-132.3525C61.5,-123.9786 61.5,-113.2929 61.5,-103.8398"></path>
<polygon fill="#000000" stroke="#000000" points="64.3001,-103.6066 61.5,-95.6066 58.7001,-103.6066 64.3001,-103.6066"></polygon>
</g>
<!-- node_1608711951126 -->
<g id="node_1608711951126" class="node">
<title>node_1608711951126</title>
<path fill="#bfefff" stroke="#000000" stroke-width=".5" d="M103.6667,-66.5C103.6667,-66.5 113.3333,-66.5 113.3333,-66.5 118.1667,-66.5 123,-71.3333 123,-76.1667 123,-76.1667 123,-85.8333 123,-85.8333 123,-90.6667 118.1667,-95.5 113.3333,-95.5 113.3333,-95.5 103.6667,-95.5 103.6667,-95.5 98.8333,-95.5 94,-90.6667 94,-85.8333 94,-85.8333 94,-76.1667 94,-76.1667 94,-71.3333 98.8333,-66.5 103.6667,-66.5"></path>
<text text-anchor="middle" x="108.2992" y="-76.2" font-family="Courier,monospace" font-size="16.00" fill="#000000">D</text>
</g>
<!-- node_1608711940032&#45;&gt;node_1608711951126 -->
<g id="edge6" class="edge">
<title>node_1608711940032-&gt;node_1608711951126</title>
<path fill="none" stroke="#000000" d="M108.5,-132.3525C108.5,-123.9786 108.5,-113.2929 108.5,-103.8398"></path>
<polygon fill="#000000" stroke="#000000" points="111.3001,-103.6066 108.5,-95.6066 105.7001,-103.6066 111.3001,-103.6066"></polygon>
</g>
<!-- node_1608711972544 -->
<g id="node_1608711972544" class="node">
<title>node_1608711972544</title>
<path fill="#bfefff" stroke="#000000" stroke-width=".5" d="M9.6667,-.5C9.6667,-.5 19.3333,-.5 19.3333,-.5 24.1667,-.5 29,-5.3333 29,-10.1667 29,-10.1667 29,-19.8333 29,-19.8333 29,-24.6667 24.1667,-29.5 19.3333,-29.5 19.3333,-29.5 9.6667,-29.5 9.6667,-29.5 4.8333,-29.5 0,-24.6667 0,-19.8333 0,-19.8333 0,-10.1667 0,-10.1667 0,-5.3333 4.8333,-.5 9.6667,-.5"></path>
<text text-anchor="middle" x="14.2992" y="-10.2" font-family="Courier,monospace" font-size="16.00" fill="#000000">T</text>
</g>
<!-- node_1608711965519&#45;&gt;node_1608711972544 -->
<g id="edge7" class="edge">
<title>node_1608711965519-&gt;node_1608711972544</title>
<path fill="none" stroke="#000000" d="M14.5,-66.3525C14.5,-57.9786 14.5,-47.2929 14.5,-37.8398"></path>
<polygon fill="#000000" stroke="#000000" points="17.3001,-37.6066 14.5,-29.6066 11.7001,-37.6066 17.3001,-37.6066"></polygon>
</g>
</g>
</svg>